<svg xmlns="http://www.w3.org/2000/svg" xmlns:xlink="http://www.w3.org/1999/xlink" version="1.1"
  width="300"
  height="100" viewBox="0 0 300 100">

  <g transform="scale(1.15) translate(-100, -7)">
    <defs id="SvgjsDefs1098"></defs>
    <g id="SvgjsG1101" featureKey="nameLeftFeature-0"
      transform="matrix(1.1749286786630229,0,0,1.1749286786630229,119.00000056024965,19.57987781204085)"
      fill="#3d84a8">
      <path
        d="M13.24 37.84 c-1.5733 1.44 -3.7068 2.1602 -6.4 2.1602 l-6.84 0 l0 -30 l5.84 0 c1.6 0 2.9333 0.20668 4 0.62 s1.92 0.97332 2.56 1.68 s1.0867 1.5267 1.34 2.46 s0.38 1.9066 0.38 2.92 c0 1.0933 -0.32668 2.1266 -0.98 3.1 s-1.5266 1.8866 -2.62 2.74 c0.42668 0.26668 0.76 0.47336 1 0.62004 s0.46668 0.28668 0.68 0.42 c0.34668 0.29332 0.73336 0.64664 1.16 1.06 s0.82 0.89332 1.18 1.44 s0.66 1.1667 0.9 1.86 s0.36 1.4666 0.36 2.32 c0 1.4933 -0.22 2.7733 -0.66 3.84 s-1.0733 1.9867 -1.9 2.76 z M6.8 12 l-4.72 0.000078124 l0 10.8 l5.12 0 c0.72 0 1.38 -0.13332 1.98 -0.4 s1.12 -0.63336 1.56 -1.1 s0.78668 -1.0067 1.04 -1.62 s0.38 -1.28 0.38 -2 c0 -0.50668 -0.07332 -1.0934 -0.22 -1.76 s-0.42 -1.2867 -0.82 -1.86 s-0.94668 -1.06 -1.64 -1.46 s-1.5866 -0.6 -2.68 -0.6 z M7.04 24.8 l-4.96 0.000078124 l0 13.08 l4.28 0 c0.88 0 1.76 -0.10668 2.64 -0.32 s1.68 -0.57332 2.4 -1.08 s1.3 -1.1734 1.74 -2 s0.66 -1.8534 0.66 -3.08 c0 -1.12 -0.17332 -2.1 -0.52 -2.94 s-0.82668 -1.5267 -1.44 -2.06 s-1.3333 -0.93332 -2.16 -1.2 s-1.7067 -0.4 -2.64 -0.4 z M25.2 40.36 c-5.04 0 -7.56 -2.64 -7.56 -7.92 l0 -14.8 c0 -2.6667 0.63332 -4.6532 1.9 -5.96 s3.3134 -1.96 6.14 -1.96 c2.5867 0 4.5 0.66 5.74 1.98 s1.86 3.2733 1.86 5.86 l0 14.88 c0 1.3333 -0.14 2.4933 -0.42 3.48 s-0.74 1.8134 -1.38 2.48 s-1.4733 1.16 -2.5 1.48 s-2.2867 0.48 -3.78 0.48 z M31.16 17.52 c0 -0.66668 -0.09328 -1.3468 -0.27996 -2.0401 s-0.49336 -1.3266 -0.92004 -1.9 s-0.99336 -1.04 -1.7 -1.4 s-1.58 -0.54 -2.62 -0.54 c-1.1467 0 -2.1 0.16 -2.86 0.48 s-1.36 0.76668 -1.8 1.34 s-0.75332 1.2466 -0.94 2.02 s-0.28 1.6133 -0.28 2.52 l0 14.2 c0 0.69332 0.08 1.4 0.24 2.12 s0.44668 1.38 0.86 1.98 s0.97332 1.0933 1.68 1.48 s1.5934 0.58 2.66 0.58 c1.1467 0 2.1 -0.15332 2.86 -0.46 s1.3667 -0.72668 1.82 -1.26 s0.78 -1.1666 0.98 -1.9 s0.3 -1.5266 0.3 -2.38 l0 -14.84 z M56.56 40 l-1.96 0 l-5.48 -26.8 l-5.44 26.8 l-1.92 0 l-6.88 -30 l2.12 0 l5.48 26.16 l6.04 -26.16 l1.28 0 l6 26.16 l5.48 -26.16 l2.16 0 z M66.2 40 l0 -30 l2.16 0 l0 27.84 l10.2 0 l0 2.16 l-12.36 0 z M80.8 40 l0 -30 l14.72 0 l0 2.32 l-12.64 0 l0 11.4 l12.52 0 l0 1.84 l-12.52 0 l0 12.12 l12.92 0 l0 2.32 l-15 0 z M104.8 40.36 c-1.3067 0 -2.4669 -0.17348 -3.4802 -0.52016 s-1.8666 -0.9 -2.56 -1.66 s-1.2066 -1.7533 -1.54 -2.98 s-0.47332 -2.7067 -0.42 -4.44 l2.4 0 c0 0.85332 0.04 1.74 0.12 2.66 s0.29332 1.76 0.64 2.52 s0.87336 1.38 1.58 1.86 s1.6867 0.72 2.94 0.72 c1.0667 0 1.9734 -0.16 2.72 -0.48 s1.3534 -0.74668 1.82 -1.28 s0.79336 -1.16 0.98004 -1.88 s0.28 -1.4667 0.28 -2.24 c0 -0.90668 -0.16668 -1.7 -0.5 -2.38 s-0.77332 -1.2867 -1.32 -1.82 s-1.1867 -1.0066 -1.92 -1.42 s-1.5 -0.78 -2.3 -1.1 c-1.28 -0.50668 -2.4 -1.0067 -3.36 -1.5 s-1.7467 -1.0466 -2.36 -1.66 s-1.0733 -1.3266 -1.38 -2.14 s-0.46 -1.8066 -0.46 -2.98 c0 -2.6667 0.7 -4.6532 2.1 -5.96 s3.4067 -1.96 6.02 -1.96 c2.2667 0 4.06 0.66 5.38 1.98 s1.98 3.3 1.98 5.94 l0 2.2 l-2.24 0 l0 -2.4 c0 -0.82668 -0.1 -1.5934 -0.3 -2.3 s-0.51332 -1.3267 -0.94 -1.86 s-0.96668 -0.95332 -1.62 -1.26 s-1.4333 -0.46 -2.34 -0.46 c-2.1333 0 -3.66 0.56 -4.58 1.68 s-1.34 2.6267 -1.26 4.52 c0.02668 0.82668 0.18 1.5334 0.46 2.12 s0.65332 1.1 1.12 1.54 s1.0267 0.83332 1.68 1.18 s1.38 0.69336 2.18 1.04 c0.93332 0.4 1.86 0.82668 2.78 1.28 s1.78 1.0133 2.58 1.68 c0.8 0.69332 1.46 1.5 1.98 2.42 s0.78 2.06 0.78 3.42 c0 2.64 -0.67332 4.62 -2.02 5.94 s-3.22 1.98 -5.62 1.98 z"></path>
    </g>
    <g id="SvgjsG1102" featureKey="inlineSymbolFeature-0"
      transform="matrix(0.36000000000000004,0,0,0.36000000000000004,256,31)" fill="#3d84a8">
      <path xmlns="http://www.w3.org/2000/svg" fill="#3d84a8"
        d="M11.804,62.666h18.469c-1.577,2.285-3.434,4.057-5.148,5.373c-2.895,2.221-5.388,3.184-5.448,3.205  c-0.188,0.068-1.373,0.52-3.064,1.434c-0.006,0.004-0.012,0.008-0.02,0.01c-1.879,1.019-4.382,2.606-6.879,4.898  C4.836,82.064,0.001,89.221,0.001,100h8c0-0.697,0.038-1.367,0.089-2.025h25.925c0.051,0.658,0.088,1.328,0.088,2.025h8  c0-10.768-4.823-17.919-9.697-22.398c-1.912,1.451-3.686,2.525-4.996,3.234l-0.221,0.117c-0.805,0.427-1.493,0.755-2.041,1.002  c1.744,1.334,3.629,3.134,5.221,5.477H11.734c1.593-2.342,3.479-4.144,5.228-5.479c2.803-2.145,5.243-3.11,5.483-3.201  c0.184-0.066,1.358-0.518,3.042-1.424c0.007-0.003,0.013-0.008,0.021-0.01c1.879-1.014,4.385-2.604,6.885-4.9  c4.877-4.48,9.711-11.633,9.711-22.415c0-10.777-4.83-17.932-9.709-22.411c-2.987,2.27-5.707,3.665-7.246,4.362  c1.744,1.336,3.631,3.136,5.223,5.478H11.74c1.841-2.713,4.076-4.704,6.033-6.084c1.026-0.724,1.96-1.274,2.731-1.683l2.688-1.217  c1.386-0.595,4.466-2.09,7.752-4.778C36.261,19.319,42.101,11.85,42.101,0h-8c0,0.736-0.059,1.428-0.117,2.12H8.101  C8.041,1.433,8,0.731,8,0H0c0,10.776,4.831,17.93,9.71,22.411c2.987-2.27,5.707-3.666,7.248-4.364  c-1.721-1.315-3.578-3.087-5.154-5.381h18.478c-4.147,6.036-10.236,8.438-10.624,8.584c-0.785,0.289-19.657,7.453-19.657,28.751  c0,10.774,4.828,17.927,9.706,22.407c1.575-1.199,3.238-2.294,5.004-3.249c0.889-0.479,1.65-0.845,2.246-1.112  C15.234,66.73,13.378,64.959,11.804,62.666z M33.517,5.32c-0.346,1.51-0.836,2.88-1.416,4.146H9.993  C9.417,8.204,8.937,6.825,8.594,5.32H33.517z M8.57,94.775c0.337-1.506,0.809-2.883,1.378-4.146h22.208  c0.568,1.264,1.041,2.641,1.377,4.146H8.57z M34.001,52.12H8.099C8.041,51.432,8,50.732,8,50.001c0-0.696,0.034-1.368,0.088-2.026  h25.925c0.053,0.657,0.088,1.328,0.088,2.026C34.101,50.732,34.06,51.434,34.001,52.12z M32.155,40.631  c0.569,1.261,1.042,2.64,1.378,4.144H8.562c0.336-1.503,0.809-2.882,1.377-4.144H32.155z M9.991,59.466  c-0.577-1.261-1.054-2.641-1.397-4.146h24.91c-0.346,1.505-0.828,2.883-1.407,4.146H9.991z"></path>
    </g>
    <g id="SvgjsG1103" featureKey="nameRightFeature-0"
      transform="matrix(1.1938741295101094,0,0,1.1938741295101094,261.67890156107035,19.252280660583978)"
      fill="#3d84a8">
      <path
        d="M12 13.920000000000002 c-0.04 2.48 0.2 20.6 0.16 21.92 c0 1.24 0 2.48 0.04 3.72 c0 0.2 0.12 0.4 0.32 0.4 c2.8 0.12 5.56 -0.12 8.36 -0.08 c0.92 0.04 1.84 0 2.72 0 c0.88 -0.04 0.96 -0.4 0.92 -1.12 c-0.04 -1.12 -0.04 -2.12 -0.04 -3.2 c-0.04 -0.56 -0.36 -0.76 -0.84 -0.76 c-1.64 0.04 -3.28 -0.04 -4.92 0.04 c-0.28 0.04 -0.56 0.04 -0.84 0.04 c-0.48 -0.04 -0.6 -0.16 -0.64 -0.68 l0 -0.6 c-0.12 -3.32 0.12 -6.76 0.12 -10.08 c-0.04 -2.8 0 -5.32 -0.04 -7.8 c0 -1.08 0 -2.16 -0.04 -3.2 c-0.04 -0.64 0 -1.32 -0.16 -1.96 c-0.08 -0.24 -0.2 -0.56 -0.48 -0.56 l-3.76 0 c-0.64 0 -0.84 0.44 -0.88 1.08 l0 2.84 z M32.2 39.68 c0.12 0.04 0.48 0.04 0.84 0.04 c0.8 0 1.04 -2.88 1.12 -3.48 c0.04 -0.48 0.16 -0.52 0.56 -0.6 c2 -0.24 3 -0.08 5 -0.04 c0.44 0 0.68 0.2 0.8 0.56 l0.28 0.92 c0.24 0.68 0.44 1.52 0.68 2.2 c0.16 0.48 0.2 0.44 0.68 0.44 c0.64 0 2.96 0 3.64 -0.04 c0.92 0 0.28 -1.88 0.16 -2.2 c-0.36 -1.12 -0.44 -2.28 -0.8 -3.4 c-0.16 -0.48 -4.72 -22.12 -4.92 -23.32 c-0.28 -0.72 -0.04 -0.76 -0.68 -0.76 c-1.36 0 -2.8 0.08 -4.2 0 c-0.56 0 -0.52 0.16 -0.6 0.76 c-0.08 0.56 -1.52 6.92 -2.08 9.56 c-0.72 3.32 -1.36 6.52 -2.16 9.8 c-0.28 1.16 -2.2 9.52 -1.96 9.56 c0.12 0.08 0.32 0.04 0.48 0.04 c1 0 1.92 0 3.16 -0.04 z M37.44 30.6 l-0.84 0 c-1.12 0 -1.16 0 -0.88 -1.16 c0.2 -0.88 1.28 -5.64 1.52 -6.8 c0.04 -0.08 0.12 -0.16 0.16 -0.16 c0.08 0 0.16 0.08 0.2 0.12 c0.16 0.48 0.32 1.68 0.48 2.16 c0.36 1.52 0.6 2.8 0.96 4.44 c0.36 1.44 0.2 1.44 -0.52 1.44 c-0.36 0 -0.72 -0.04 -1.08 -0.04 z M50.32 13.079999999999998 c0 1.92 -0.08 22.56 0 24.4 c0.04 0.44 0.04 0.88 0.04 1.32 c0 0.32 0.2 0.52 0.48 0.64 c0.24 0.08 0.56 0.16 0.8 0.16 c1.16 -0.12 2.4 0 3.6 -0.04 c2.08 0.16 3.96 -0.32 5.76 -1.28 c1.68 -0.96 2.6 -2.68 3.24 -4.48 c0.52 -1.52 0.44 -3.32 0.16 -4.88 c-0.24 -1.4 -0.88 -2.76 -1.72 -3.88 c-0.12 -0.16 -1.84 -1.24 -1.76 -1.32 c1.04 -1.48 2.52 -2.72 2.72 -4.56 c0.16 -1.6 -0.2 -3.24 -0.76 -4.72 c-0.36 -0.96 -0.84 -1.88 -1.6 -2.6 c-1.28 -1.2 -3.2 -1.72 -4.88 -1.88 c-1.72 -0.16 -3.32 -0.04 -5.04 -0.12 c-0.6 0 -0.88 0.24 -0.88 0.88 c0 0.84 -0.16 1.52 -0.16 2.36 z M55.24 20.36 c-0.04 -0.44 0 -3.96 -0.08 -5.28 c-0.04 -0.48 0.24 -0.72 0.76 -0.6 c0.4 0.08 0.72 0.12 1.04 0.36 c1 0.76 1.76 1.68 1.8 2.96 c0 0.64 0 1.28 -0.24 1.88 c-0.28 0.72 -0.68 1.28 -1.4 1.64 c-0.48 0.24 -0.92 0.52 -1.4 0.72 c-0.24 0.08 -0.48 -0.04 -0.52 -0.28 c0 -0.48 0.04 -1.4 0.04 -1.4 z M59.24 30.96 c0 0.2 -0.04 0.56 -0.04 0.92 c-0.04 1.2 -1.6 2.72 -3.4 2.76 c-0.12 0 -0.32 -0.12 -0.36 -0.24 c-0.08 -0.24 -0.16 -0.52 -0.16 -0.8 c-0.04 -1.24 0 -2.44 0 -3.76 c0.12 -0.84 0.04 -1.72 0.04 -2.6 c0.04 -0.68 0.2 -0.8 0.84 -0.92 c0.96 -0.12 1.84 0.28 2.28 1.04 c0.52 0.92 0.72 1.92 0.8 2.96 l0 0.64 z"></path>
    </g>
  </g>
</svg>
	